HIERARCHY
ROOT simHips
{
  OFFSET 87.347 99.8088 105.122
  CHANNELS 6 Xposition Yposition Zposition Zrotation Xrotation Yrotation
  JOINT simSpine
  {
    OFFSET -0.000355721 21.3001 -0.016921
    CHANNELS 3 Zrotation Xrotation Yrotation
    JOINT simLeftArm
    {
      OFFSET 13.5181 21.3012 0
      CHANNELS 3 Zrotation Xrotation Yrotation
      JOINT simLeftForeArm
      {
        OFFSET 24.5783 0 0
        CHANNELS 3 Zrotation Xrotation Yrotation
        JOINT simLeftHand
        {
          OFFSET 24.5783 0 0
          CHANNELS 3 Zrotation Xrotation Yrotation
          End Site
          {
            OFFSET 7.32568 1.52588e-05 0.0169305
          }
        }
      }
    }
    JOINT simHead
    {
      OFFSET 0 27.4458 -0.00489235
      CHANNELS 3 Zrotation Xrotation Yrotation
      End Site
      {
        OFFSET 0 0 0
      }
    }
    JOINT simRightArm
    {
      OFFSET -13.5174 21.3012 0
      CHANNELS 3 Zrotation Xrotation Yrotation
      JOINT simRightForeArm
      {
        OFFSET -24.5783 0 0
        CHANNELS 3 Zrotation Xrotation Yrotation
        JOINT simRightHand
        {
          OFFSET -24.5783 0 0
          CHANNELS 3 Zrotation Xrotation Yrotation
          End Site
          {
            OFFSET -7.32568 1.52588e-05 0.0169305
          }
        }
      }
    }
  }
  JOINT simRightUpLeg
  {
    OFFSET -8.44614 -9.41038 0.835684
    CHANNELS 3 Zrotation Xrotation Yrotation
    JOINT simRightLeg
    {
      OFFSET 0 -40.9639 0
      CHANNELS 3 Zrotation Xrotation Yrotation
      JOINT simRightFoot
      {
        OFFSET 0 -40.9639 0
        CHANNELS 3 Zrotation Xrotation Yrotation
        End Site
        {
          OFFSET 0.50614 -9.67405 14.6709
        }
      }
    }
  }
  JOINT simLeftUpLeg
  {
    OFFSET 8.44614 -9.41038 0.835684
    CHANNELS 3 Zrotation Xrotation Yrotation
    JOINT simLeftLeg
    {
      OFFSET 0 -40.9639 0
      CHANNELS 3 Zrotation Xrotation Yrotation
      JOINT simLeftFoot
      {
        OFFSET 0 -40.9639 0
        CHANNELS 3 Zrotation Xrotation Yrotation
        End Site
        {
          OFFSET -0.50614 -9.67405 14.6709
        }
      }
    }
  }
}
MOTION
Frames:	9
Frame Time:	0.0333333
-65.683 85.3681 16.4134 11.5082 7.84836 92.794 6.42532 16.6754 -15.3859 -7.83318 -10.2792 -28.5683 25.9816 -15.3311 -75.7274 25.992 -12.3526 4.79363 3.90792 -1.52949 18.3101 57.4089 27.3695 -7.0712 -25.6711 -17.8681 47.9085 -15.4379 -37.0012 -4.85091 -20.3717 -33.6418 -3.65645 17.6623 63.9991 -12.5832 0.837183 -14.6987 -3.11715 25.4205 10.676 -6.96865 -47.0194 60.8187 30.8463 -5.31029 8.06336 0.812255 
-68.4265 85.4739 16.5432 11.2093 6.86999 95.2745 6.09136 14.2706 -22.2211 -5.94534 -2.80055 -33.3837 26.7578 -17.4618 -80.9055 27.1644 -7.75238 3.43898 3.13405 3.82631 19.321 58.6638 18.9968 -16.4556 -26.282 -18.8446 49.5171 -13.185 -35.1535 -4.62273 -20.7346 -33.6863 -6.66032 15.7851 61.5416 -10.8505 0.968033 -11.9294 -3.16345 25.3289 17.1073 -7.50553 -33.569 53.8466 19.053 -13.9741 0.11157 6.01517 
-72.2543 85.8337 16.8284 9.26551 6.37193 98.729 5.29164 12.8848 -29.0977 -6.71496 6.91097 -35.1719 27.4502 -20.1996 -87.4145 29.1494 -2.11269 2.57952 3.81491 3.77873 21.1866 56.2811 10.0766 -22.5289 -27.2622 -20.5502 52.26 -11.7054 -34.5894 -4.39261 -21.9788 -35.0126 -9.8536 13.2288 57.3463 -8.53307 1.90676 -7.74683 -4.11348 22.9107 18.8996 -6.43303 -25.0675 46.5577 12.3043 -14.0764 -16.9171 10.7351 
-77.0953 86.5585 17.1438 7.05276 5.25731 100.694 5.42972 14.3138 -32.8745 -8.49426 18.5492 -32.9556 27.7723 -22.5638 -92.9939 31.1135 2.5024 1.91591 8.79978 -3.71147 22.9108 53.1794 3.6665 -27.7658 -28.2182 -22.4056 55.1733 -10.4321 -34.4707 -5.26595 -21.0223 -36.8875 -10.2987 10.246 50.7096 -5.94316 2.37157 -2.6802 -6.41679 20.6275 18.0387 -1.70425 -18.753 38.8259 7.92943 -9.22137 -26.328 14.2135 
-83.0131 87.9002 17.2076 3.73418 4.3975 100.046 5.98284 17.525 -34.8516 -17.5245 29.337 -20.6083 27.8647 -24.4345 -97.437 35.8882 5.80582 -1.06836 19.052 -22.646 30.7039 52.0418 4.38963 -29.0329 -29.3696 -25.0072 59.1718 -7.59264 -36.6422 -4.5579 -20.3066 -38.6395 -11.8829 6.88346 39.6902 -3.20773 5.46138 2.90715 -6.34481 18.3401 14.2532 4.84733 -15.3389 33.5309 5.78887 -8.64765 -29.0793 10.4541 
-89.4275 90.0577 17.6341 1.03156 4.51324 98.4546 5.30402 24.1438 -33.8262 -34.1566 31.5851 -2.68139 27.8604 -24.9211 -98.6016 43.1374 8.73263 -6.77487 41.3798 -47.4035 48.1942 52.3374 9.20529 -25.7547 -30.6479 -28.6116 64.5836 -2.55603 -35.9431 0.841998 -19.1137 -37.9678 -14.619 3.72416 27.2763 -1.21583 8.42498 3.25778 -1.72386 16.8513 10.5326 13.1406 -13.0474 29.5294 4.37703 -12.2814 -25.3724 1.31309 
-95.8639 92.3285 18.2723 -4.68503 3.36491 97.9143 5.78778 28.1642 -28.4703 -42.1066 23.9089 4.91232 27.8679 -24.15 -96.7564 43.2621 3.72197 -3.51456 71.3499 -65.2875 72.3286 48.5302 14.106 -22.3273 -31.8917 -34.3644 73.2185 -0.947843 -33.3514 3.80502 -19.1449 -42.5352 -18.6922 3.03241 25.0375 -0.897794 9.04653 6.06909 -2.08224 16.0836 0.741992 16.6154 -12.2594 28.1232 3.92209 -9.75504 -21.6012 0.355767 
-102.306 94.0316 19.2482 -11.1754 1.09417 98.2785 7.33142 31.4788 -19.0221 -34.3719 13.6096 2.21091 27.8308 -23.3054 -94.7524 41.1338 -5.79833 3.78896 93.8852 -76.9987 90.5108 36.3632 12.8804 -21.2066 -32.0959 -40.1203 82.2414 -2.42716 -31.2389 4.53278 -21.8959 -51.1198 -21.9761 6.04197 36.5787 -2.57664 9.12961 5.58367 -2.07417 17.4086 -10.2743 20.4844 -11.4688 26.7668 3.49643 -7.25234 -17.2624 -2.40467 
-108.752 94.4023 20.5144 -16.4126 -0.889976 98.8287 7.65347 34.8418 -10.0867 -20.2061 0.21823 1.06663 27.6872 -21.6946 -90.9423 42.7287 -10.9709 5.03867 40.6233 -78.1662 38.9219 16.3093 5.24101 -18.7108 -32.0735 -40.4396 82.7625 -6.83136 -31.4874 4.80299 -25.472 -58.2437 -26.094 9.73792 49.4866 -5.38296 10.4965 9.26786 1.52849 19.8412 -18.6552 23.1557 -11.7316 27.2547 3.56123 -10.667 -17.1346 -11.7217 
